<svg viewBox="0 0 960 160" xmlns="http://www.w3.org/2000/svg"
     style="width:100%; height:auto; font-family:Arial, sans-serif;">

  <!-- switch chassis -->
  <rect x="0" y="0" width="960" height="160" rx="4" fill="#1a1a1a" stroke="#444" stroke-width="1.5"/>

  <!-- brand label -->
  <text x="20" y="22" fill="#888" font-size="11" font-weight="bold">RUCKUS</text>
  <text x="80" y="22" fill="#666" font-size="10">ICX 8200-48</text>

  <!-- === management section (left) === -->
  <rect x="14" y="36" width="22" height="14" rx="3" fill="#222" stroke="#555" stroke-width="0.8"/>
  <text x="25" y="66" fill="#777" font-size="6" text-anchor="middle">CON</text>

  <rect x="42" y="35" width="16" height="16" rx="2" fill="#222" stroke="#555" stroke-width="0.8"/>
  <text x="50" y="66" fill="#777" font-size="6" text-anchor="middle">SER</text>

  <rect x="64" y="35" width="16" height="16" rx="2" fill="#222" stroke="#0af" stroke-width="1"/>
  <text x="72" y="66" fill="#777" font-size="6" text-anchor="middle">MGMT</text>

  <rect x="86" y="36" width="18" height="14" rx="2" fill="#222" stroke="#555" stroke-width="0.8"/>
  <text x="95" y="66" fill="#777" font-size="6" text-anchor="middle">USB</text>

  <!-- === status LEDs === -->
  <circle id="led-pwr" cx="22" cy="86" r="3" fill="#0c0" opacity="0.9"/>
  <text x="22" y="100" fill="#666" font-size="5" text-anchor="middle">PWR</text>
  <circle id="led-sys" cx="38" cy="86" r="3" fill="#0c0" opacity="0.9"/>
  <text x="38" y="100" fill="#666" font-size="5" text-anchor="middle">SYS</text>
  <circle id="led-stk" cx="54" cy="86" r="3" fill="#f80" opacity="0.9"/>
  <text x="54" y="100" fill="#666" font-size="5" text-anchor="middle">STK</text>
  <circle id="led-fan" cx="70" cy="86" r="3" fill="#0c0" opacity="0.9"/>
  <text x="70" y="100" fill="#666" font-size="5" text-anchor="middle">FAN</text>

  <line x1="108" y1="28" x2="108" y2="150" stroke="#333" stroke-width="1"/>

  <!-- === rj45 ports: 48 ports, 2 rows of 24 === -->
  <!-- each port rect has id="port-N" for Flowcharting binding -->
  <!-- each port led has id="led-N" for Flowcharting binding -->
  <!-- default stroke="#555" (no data) — Flowcharting maps: 1=green, 0=red -->

  <!-- top row: ports 1-12 -->
  <rect id="port-1"  x="120" y="32" width="14" height="16" rx="1.5" fill="#222" stroke="#555" stroke-width="1.2"/>
  <rect id="port-2"  x="138" y="32" width="14" height="16" rx="1.5" fill="#222" stroke="#555" stroke-width="1.2"/>
  <rect id="port-3"  x="156" y="32" width="14" height="16" rx="1.5" fill="#222" stroke="#555" stroke-width="1.2"/>
  <rect id="port-4"  x="174" y="32" width="14" height="16" rx="1.5" fill="#222" stroke="#555" stroke-width="1.2"/>
  <rect id="port-5"  x="192" y="32" width="14" height="16" rx="1.5" fill="#222" stroke="#555" stroke-width="1.2"/>
  <rect id="port-6"  x="210" y="32" width="14" height="16" rx="1.5" fill="#222" stroke="#555" stroke-width="1.2"/>
  <rect id="port-7"  x="228" y="32" width="14" height="16" rx="1.5" fill="#222" stroke="#555" stroke-width="1.2"/>
  <rect id="port-8"  x="246" y="32" width="14" height="16" rx="1.5" fill="#222" stroke="#555" stroke-width="1.2"/>
  <rect id="port-9"  x="264" y="32" width="14" height="16" rx="1.5" fill="#222" stroke="#555" stroke-width="1.2"/>
  <rect id="port-10" x="282" y="32" width="14" height="16" rx="1.5" fill="#222" stroke="#555" stroke-width="1.2"/>
  <rect id="port-11" x="300" y="32" width="14" height="16" rx="1.5" fill="#222" stroke="#555" stroke-width="1.2"/>
  <rect id="port-12" x="318" y="32" width="14" height="16" rx="1.5" fill="#222" stroke="#555" stroke-width="1.2"/>

  <!-- top row: ports 13-24 -->
  <rect id="port-13" x="344" y="32" width="14" height="16" rx="1.5" fill="#222" stroke="#555" stroke-width="1.2"/>
  <rect id="port-14" x="362" y="32" width="14" height="16" rx="1.5" fill="#222" stroke="#555" stroke-width="1.2"/>
  <rect id="port-15" x="380" y="32" width="14" height="16" rx="1.5" fill="#222" stroke="#555" stroke-width="1.2"/>
  <rect id="port-16" x="398" y="32" width="14" height="16" rx="1.5" fill="#222" stroke="#555" stroke-width="1.2"/>
  <rect id="port-17" x="416" y="32" width="14" height="16" rx="1.5" fill="#222" stroke="#555" stroke-width="1.2"/>
  <rect id="port-18" x="434" y="32" width="14" height="16" rx="1.5" fill="#222" stroke="#555" stroke-width="1.2"/>
  <rect id="port-19" x="452" y="32" width="14" height="16" rx="1.5" fill="#222" stroke="#555" stroke-width="1.2"/>
  <rect id="port-20" x="470" y="32" width="14" height="16" rx="1.5" fill="#222" stroke="#555" stroke-width="1.2"/>
  <rect id="port-21" x="488" y="32" width="14" height="16" rx="1.5" fill="#222" stroke="#555" stroke-width="1.2"/>
  <rect id="port-22" x="506" y="32" width="14" height="16" rx="1.5" fill="#222" stroke="#555" stroke-width="1.2"/>
  <rect id="port-23" x="524" y="32" width="14" height="16" rx="1.5" fill="#222" stroke="#555" stroke-width="1.2"/>
  <rect id="port-24" x="542" y="32" width="14" height="16" rx="1.5" fill="#222" stroke="#555" stroke-width="1.2"/>

  <!-- bottom row: ports 25-36 -->
  <rect id="port-25" x="120" y="54" width="14" height="16" rx="1.5" fill="#222" stroke="#555" stroke-width="1.2"/>
  <rect id="port-26" x="138" y="54" width="14" height="16" rx="1.5" fill="#222" stroke="#555" stroke-width="1.2"/>
  <rect id="port-27" x="156" y="54" width="14" height="16" rx="1.5" fill="#222" stroke="#555" stroke-width="1.2"/>
  <rect id="port-28" x="174" y="54" width="14" height="16" rx="1.5" fill="#222" stroke="#555" stroke-width="1.2"/>
  <rect id="port-29" x="192" y="54" width="14" height="16" rx="1.5" fill="#222" stroke="#555" stroke-width="1.2"/>
  <rect id="port-30" x="210" y="54" width="14" height="16" rx="1.5" fill="#222" stroke="#555" stroke-width="1.2"/>
  <rect id="port-31" x="228" y="54" width="14" height="16" rx="1.5" fill="#222" stroke="#555" stroke-width="1.2"/>
  <rect id="port-32" x="246" y="54" width="14" height="16" rx="1.5" fill="#222" stroke="#555" stroke-width="1.2"/>
  <rect id="port-33" x="264" y="54" width="14" height="16" rx="1.5" fill="#222" stroke="#555" stroke-width="1.2"/>
  <rect id="port-34" x="282" y="54" width="14" height="16" rx="1.5" fill="#222" stroke="#555" stroke-width="1.2"/>
  <rect id="port-35" x="300" y="54" width="14" height="16" rx="1.5" fill="#222" stroke="#555" stroke-width="1.2"/>
  <rect id="port-36" x="318" y="54" width="14" height="16" rx="1.5" fill="#222" stroke="#555" stroke-width="1.2"/>

  <!-- bottom row: ports 37-48 -->
  <rect id="port-37" x="344" y="54" width="14" height="16" rx="1.5" fill="#222" stroke="#555" stroke-width="1.2"/>
  <rect id="port-38" x="362" y="54" width="14" height="16" rx="1.5" fill="#222" stroke="#555" stroke-width="1.2"/>
  <rect id="port-39" x="380" y="54" width="14" height="16" rx="1.5" fill="#222" stroke="#555" stroke-width="1.2"/>
  <rect id="port-40" x="398" y="54" width="14" height="16" rx="1.5" fill="#222" stroke="#555" stroke-width="1.2"/>
  <rect id="port-41" x="416" y="54" width="14" height="16" rx="1.5" fill="#222" stroke="#555" stroke-width="1.2"/>
  <rect id="port-42" x="434" y="54" width="14" height="16" rx="1.5" fill="#222" stroke="#555" stroke-width="1.2"/>
  <rect id="port-43" x="452" y="54" width="14" height="16" rx="1.5" fill="#222" stroke="#555" stroke-width="1.2"/>
  <rect id="port-44" x="470" y="54" width="14" height="16" rx="1.5" fill="#222" stroke="#555" stroke-width="1.2"/>
  <rect id="port-45" x="488" y="54" width="14" height="16" rx="1.5" fill="#222" stroke="#555" stroke-width="1.2"/>
  <rect id="port-46" x="506" y="54" width="14" height="16" rx="1.5" fill="#222" stroke="#555" stroke-width="1.2"/>
  <rect id="port-47" x="524" y="54" width="14" height="16" rx="1.5" fill="#222" stroke="#555" stroke-width="1.2"/>
  <rect id="port-48" x="542" y="54" width="14" height="16" rx="1.5" fill="#222" stroke="#555" stroke-width="1.2"/>

  <!-- top row port numbers -->
  <g fill="#999" font-size="5.5" text-anchor="middle">
    <text x="127" y="28">1</text>  <text x="145" y="28">2</text>  <text x="163" y="28">3</text>
    <text x="181" y="28">4</text>  <text x="199" y="28">5</text>  <text x="217" y="28">6</text>
    <text x="235" y="28">7</text>  <text x="253" y="28">8</text>  <text x="271" y="28">9</text>
    <text x="289" y="28">10</text> <text x="307" y="28">11</text> <text x="325" y="28">12</text>
    <text x="351" y="28">13</text> <text x="369" y="28">14</text> <text x="387" y="28">15</text>
    <text x="405" y="28">16</text> <text x="423" y="28">17</text> <text x="441" y="28">18</text>
    <text x="459" y="28">19</text> <text x="477" y="28">20</text> <text x="495" y="28">21</text>
    <text x="513" y="28">22</text> <text x="531" y="28">23</text> <text x="549" y="28">24</text>
  </g>

  <!-- bottom row port numbers -->
  <g fill="#999" font-size="5.5" text-anchor="middle">
    <text x="127" y="80">25</text> <text x="145" y="80">26</text> <text x="163" y="80">27</text>
    <text x="181" y="80">28</text> <text x="199" y="80">29</text> <text x="217" y="80">30</text>
    <text x="235" y="80">31</text> <text x="253" y="80">32</text> <text x="271" y="80">33</text>
    <text x="289" y="80">34</text> <text x="307" y="80">35</text> <text x="325" y="80">36</text>
    <text x="351" y="80">37</text> <text x="369" y="80">38</text> <text x="387" y="80">39</text>
    <text x="405" y="80">40</text> <text x="423" y="80">41</text> <text x="441" y="80">42</text>
    <text x="459" y="80">43</text> <text x="477" y="80">44</text> <text x="495" y="80">45</text>
    <text x="513" y="80">46</text> <text x="531" y="80">47</text> <text x="549" y="80">48</text>
  </g>

  <!-- port activity LEDs -->
  <circle id="led-1"  cx="127" cy="50" r="1.5" fill="#555"/>
  <circle id="led-2"  cx="145" cy="50" r="1.5" fill="#555"/>
  <circle id="led-3"  cx="163" cy="50" r="1.5" fill="#555"/>
  <circle id="led-4"  cx="181" cy="50" r="1.5" fill="#555"/>
  <circle id="led-5"  cx="199" cy="50" r="1.5" fill="#555"/>
  <circle id="led-6"  cx="217" cy="50" r="1.5" fill="#555"/>
  <circle id="led-7"  cx="235" cy="50" r="1.5" fill="#555"/>
  <circle id="led-8"  cx="253" cy="50" r="1.5" fill="#555"/>
  <circle id="led-9"  cx="271" cy="50" r="1.5" fill="#555"/>
  <circle id="led-10" cx="289" cy="50" r="1.5" fill="#555"/>
  <circle id="led-11" cx="307" cy="50" r="1.5" fill="#555"/>
  <circle id="led-12" cx="325" cy="50" r="1.5" fill="#555"/>
  <circle id="led-13" cx="351" cy="50" r="1.5" fill="#555"/>
  <circle id="led-14" cx="369" cy="50" r="1.5" fill="#555"/>
  <circle id="led-15" cx="387" cy="50" r="1.5" fill="#555"/>
  <circle id="led-16" cx="405" cy="50" r="1.5" fill="#555"/>
  <circle id="led-17" cx="423" cy="50" r="1.5" fill="#555"/>
  <circle id="led-18" cx="441" cy="50" r="1.5" fill="#555"/>
  <circle id="led-19" cx="459" cy="50" r="1.5" fill="#555"/>
  <circle id="led-20" cx="477" cy="50" r="1.5" fill="#555"/>
  <circle id="led-21" cx="495" cy="50" r="1.5" fill="#555"/>
  <circle id="led-22" cx="513" cy="50" r="1.5" fill="#555"/>
  <circle id="led-23" cx="531" cy="50" r="1.5" fill="#555"/>
  <circle id="led-24" cx="549" cy="50" r="1.5" fill="#555"/>

  <circle id="led-25" cx="127" cy="72" r="1.5" fill="#555"/>
  <circle id="led-26" cx="145" cy="72" r="1.5" fill="#555"/>
  <circle id="led-27" cx="163" cy="72" r="1.5" fill="#555"/>
  <circle id="led-28" cx="181" cy="72" r="1.5" fill="#555"/>
  <circle id="led-29" cx="199" cy="72" r="1.5" fill="#555"/>
  <circle id="led-30" cx="217" cy="72" r="1.5" fill="#555"/>
  <circle id="led-31" cx="235" cy="72" r="1.5" fill="#555"/>
  <circle id="led-32" cx="253" cy="72" r="1.5" fill="#555"/>
  <circle id="led-33" cx="271" cy="72" r="1.5" fill="#555"/>
  <circle id="led-34" cx="289" cy="72" r="1.5" fill="#555"/>
  <circle id="led-35" cx="307" cy="72" r="1.5" fill="#555"/>
  <circle id="led-36" cx="325" cy="72" r="1.5" fill="#555"/>
  <circle id="led-37" cx="351" cy="72" r="1.5" fill="#555"/>
  <circle id="led-38" cx="369" cy="72" r="1.5" fill="#555"/>
  <circle id="led-39" cx="387" cy="72" r="1.5" fill="#555"/>
  <circle id="led-40" cx="405" cy="72" r="1.5" fill="#555"/>
  <circle id="led-41" cx="423" cy="72" r="1.5" fill="#555"/>
  <circle id="led-42" cx="441" cy="72" r="1.5" fill="#555"/>
  <circle id="led-43" cx="459" cy="72" r="1.5" fill="#555"/>
  <circle id="led-44" cx="477" cy="72" r="1.5" fill="#555"/>
  <circle id="led-45" cx="495" cy="72" r="1.5" fill="#555"/>
  <circle id="led-46" cx="513" cy="72" r="1.5" fill="#555"/>
  <circle id="led-47" cx="531" cy="72" r="1.5" fill="#555"/>
  <circle id="led-48" cx="549" cy="72" r="1.5" fill="#555"/>

  <!-- separator before SFP section -->
  <line x1="568" y1="28" x2="568" y2="82" stroke="#333" stroke-width="1"/>

  <!-- === SFP28 uplink/stacking ports === -->
  <text x="610" y="28" fill="#777" font-size="7" text-anchor="middle">25GbE SFP28</text>

  <rect id="port-49" x="578" y="32" width="26" height="18" rx="2" fill="#1e1e1e" stroke="#555" stroke-width="1.2"/>
  <rect id="port-50" x="612" y="32" width="26" height="18" rx="2" fill="#1e1e1e" stroke="#555" stroke-width="1.2"/>
  <rect id="port-51" x="578" y="56" width="26" height="18" rx="2" fill="#1e1e1e" stroke="#555" stroke-width="1.2"/>
  <rect id="port-52" x="612" y="56" width="26" height="18" rx="2" fill="#1e1e1e" stroke="#555" stroke-width="1.2"/>

  <g fill="#aaa" font-size="6" text-anchor="middle">
    <text x="591" y="44">49</text>
    <text x="625" y="44">50</text>
    <text x="591" y="68">51</text>
    <text x="625" y="68">52</text>
  </g>

  <circle id="led-49" cx="591" cy="52" r="1.5" fill="#555"/>
  <circle id="led-50" cx="625" cy="52" r="1.5" fill="#555"/>
  <circle id="led-51" cx="591" cy="76" r="1.5" fill="#555"/>
  <circle id="led-52" cx="625" cy="76" r="1.5" fill="#555"/>

  <!-- === legend === -->
  <g transform="translate(120, 100)">
    <rect x="0" y="0" width="520" height="48" rx="3" fill="#111" stroke="#333" stroke-width="0.5"/>
    <text x="10" y="14" fill="#888" font-size="7" font-weight="bold">PORT STATUS LEGEND</text>
    <circle cx="18" cy="28" r="4" fill="none" stroke="#0c0" stroke-width="1.5"/>
    <text x="28" y="31" fill="#999" font-size="7">Link Up</text>
    <circle cx="88" cy="28" r="4" fill="none" stroke="#f00" stroke-width="1.5"/>
    <text x="98" y="31" fill="#999" font-size="7">Link Down</text>
    <circle cx="168" cy="28" r="4" fill="none" stroke="#555" stroke-width="1.5"/>
    <text x="178" y="31" fill="#999" font-size="7">No Data</text>
    <circle cx="238" cy="28" r="2" fill="#0c0"/>
    <text x="246" y="31" fill="#999" font-size="7">Activity LED</text>
    <text x="320" y="31" fill="#666" font-size="6">Bind: id="port-N" (stroke) | id="led-N" (fill)</text>
  </g>

  <!-- rack mount ears -->
  <rect x="0" y="0" width="8" height="160" rx="2" fill="#222" stroke="#444" stroke-width="0.5"/>
  <circle cx="4" cy="20" r="2" fill="#333" stroke="#555" stroke-width="0.3"/>
  <circle cx="4" cy="140" r="2" fill="#333" stroke="#555" stroke-width="0.3"/>
  <rect x="952" y="0" width="8" height="160" rx="2" fill="#222" stroke="#444" stroke-width="0.5"/>
  <circle cx="956" cy="20" r="2" fill="#333" stroke="#555" stroke-width="0.3"/>
  <circle cx="956" cy="140" r="2" fill="#333" stroke="#555" stroke-width="0.3"/>

</svg>
